# xmcd
#
# Track frame offsets:
#        150
#        14825
#        31682
#        43932
#        57025
#        72752
#        89987
#        108760
#        127102
#        143652
#        158645
#        172280
#        190080
#        206572
#        230330
#
# Disc length: 4440 seconds
#
# Revision: 0
# Processed by: cddbd v1.5PL3 Copyright (c) Steve Scherf et al.
# Submitted via: ExactAudioCopy v0.95a4
#
DISCID=d411560f
DTITLE=Various Artist - Wow! Disney Mania 2
DYEAR=2004
DGENRE=Anime
TTITLE0=Jump5/Welcome
TTITLE1=Raven/True to Your Heart
TTITLE2=Baha Men/It's a Small World
TTITLE3=The Beu Sisters/He's a Tramp
TTITLE4=Stevie Brock/Zip-A-Dee-Doo-Dah
TTITLE5=Hilary and Haylie Duff/The Siamese Cat Song
TTITLE6=Disney Channel Circle of Stars/Circle of Life
TTITLE7=LMNT/A Whole New World
TTITLE8=No Secrets/Once Upon Another Dream
TTITLE9=The Beu Sisters/Anytime You Need a Friend
TTITLE10=Jesse McCartney/The Second Star to the Right
TTITLE11=Ashley Gearing/When You Wish Upon a Star
TTITLE12=Daniel Bedingfield/A Dream Is a Wish Your Heart Makes
TTITLE13=They Might Be Giants/Baroque Hoedown
TTITLE14=Data Track
EXTD=
EXTT0=
EXTT1=
EXTT2=
EXTT3=
EXTT4=
EXTT5=
EXTT6=
EXTT7=
EXTT8=
EXTT9=
EXTT10=
EXTT11=
EXTT12=
EXTT13=
EXTT14=
PLAYORDER=
